# xmcd CD database file
#
# Track frame offsets:
#	150
#	15020
#	27950
#	42748
#	55590
#	67550
#	80195
#	94677
#	107772
#	120882
#	133455
#	144470
#	155580
#	172283
#	188935
#	215315
#	235072
#	249170
#	264657
#	284447
#	306132
#	323127
#
# Disc length: 4569 seconds
#
# Revision: 0
# Processed by: cddbd v1.5.2PL0 Copyright (c) Steve Scherf et al.
# Submitted via: CDex 1.70beta2
#
DISCID=3111d716
DTITLE=Miles Davis - Bebop Story Vol 1 1945-48 Disc 063
DYEAR=2008
DGENRE=Jazz
TTITLE0=That's The Stuff You Gotta Watch
TTITLE1=Pointless Mama
TTITLE2=Deep Sea Blues
TTITLE3=Bring It On Homr
TTITLE4=Milestones
TTITLE5=Milestones
TTITLE6=Little Willie Leaps
TTITLE7=Little Willie Leaps
TTITLE8=Half Nelson
TTITLE9=Half Nelson
TTITLE10=Sippin' At Bells
TTITLE11=Sippin' At Bells
TTITLE12=Move
TTITLE13=Why Do I Love You
TTITLE14=Godchild
TTITLE15=S'il Vous Plait
TTITLE16=Moon Dreams
TTITLE17=Hallucinations
TTITLE18=Darn That Dream
TTITLE19=Move
TTITLE20=Monndreams
TTITLE21=Hallucinations
EXTD=YEAR: 2008
EXTT0=
EXTT1=
EXTT2=
EXTT3=
EXTT4=
EXTT5=
EXTT6=
EXTT7=
EXTT8=
EXTT9=
EXTT10=
EXTT11=
EXTT12=
EXTT13=
EXTT14=
EXTT15=
EXTT16=
EXTT17=
EXTT18=
EXTT19=
EXTT20=
EXTT21=
PLAYORDER=
